<?xml version="1.0" encoding="UTF-8" standalone="no"?><!-- Generator: Gravit.io --><svg xmlns="http://www.w3.org/2000/svg" xmlns:xlink="http://www.w3.org/1999/xlink" style="isolation:isolate" viewBox="0 0 180 180" width="180pt" height="180pt"><defs><clipPath id="_clipPath_cA354VqA71bn2iHPVKnhlnWjR4NOpG2M"><rect width="180" height="180"/></clipPath></defs><g clip-path="url(#_clipPath_cA354VqA71bn2iHPVKnhlnWjR4NOpG2M)"><path d=" M 1.361 72.255 C 9.925 23.565 56.597 -8.013 105.518 1.781 C 154.44 11.575 187.204 59.056 178.639 107.745 C 170.075 156.435 123.403 188.013 74.482 178.219 C 25.56 168.425 -7.204 120.944 1.361 72.255 Z " fill="rgb(235,235,235)"/><g><path d=" M 80.831 65.163 C 80.751 55.829 86.837 48.191 94.413 48.117 C 101.988 48.043 108.204 55.561 108.284 64.895 C 108.364 74.229 102.278 81.867 94.703 81.941 C 87.127 82.015 80.911 74.497 80.831 65.163 Z " fill="rgb(93,93,93)"/><path d=" M 129.098 64.692 C 129.018 55.358 135.104 47.72 142.679 47.646 C 150.255 47.572 156.471 55.09 156.551 64.424 C 156.631 73.758 150.545 81.396 142.969 81.47 C 135.394 81.544 129.178 74.026 129.098 64.692 Z " fill="rgb(93,93,93)"/><path d="M 56.359 35.743 L 153.124 34.799 C 154.875 34.782 156.307 36.031 156.32 37.587 L 156.32 37.587 C 156.334 39.143 154.923 40.419 153.172 40.436 L 56.407 41.381 C 54.656 41.398 53.223 40.148 53.21 38.593 L 53.21 38.593 C 53.197 37.037 54.608 35.76 56.359 35.743 Z" style="stroke:none;fill:#5D5D5D;stroke-miterlimit:10;"/></g></g></svg>